<svg width="94" height="27" viewBox="0 0 94 27" fill="none" xmlns="http://www.w3.org/2000/svg">
<path d="M33.48 21V20.604L40.344 10.572H34.176V8.04H44.844V8.448L38.004 18.468H44.556V21H33.48ZM50.9679 21.36C49.6559 21.36 48.5039 21.076 47.5119 20.508C46.5199 19.94 45.7439 19.152 45.1839 18.144C44.6319 17.136 44.3559 15.976 44.3559 14.664C44.3559 13.248 44.6279 12.02 45.1719 10.98C45.7159 9.932 46.4719 9.12 47.4399 8.544C48.4079 7.968 49.5279 7.68 50.7999 7.68C52.1439 7.68 53.2839 7.996 54.2199 8.628C55.1639 9.252 55.8639 10.136 56.3199 11.28C56.7759 12.424 56.9479 13.772 56.8359 15.324H53.9679V14.268C53.9599 12.86 53.7119 11.832 53.2239 11.184C52.7359 10.536 51.9679 10.212 50.9199 10.212C49.7359 10.212 48.8559 10.58 48.2799 11.316C47.7039 12.044 47.4159 13.112 47.4159 14.52C47.4159 15.832 47.7039 16.848 48.2799 17.568C48.8559 18.288 49.6959 18.648 50.7999 18.648C51.5119 18.648 52.1239 18.492 52.6359 18.18C53.1559 17.86 53.5559 17.4 53.8359 16.8L56.6919 17.664C56.1959 18.832 55.4279 19.74 54.3879 20.388C53.3559 21.036 52.2159 21.36 50.9679 21.36ZM46.5039 15.324V13.14H55.4199V15.324H46.5039ZM59.5431 26.76L62.0391 19.908L62.0871 21.924L56.4351 8.04H59.4471L63.4551 18.312H62.6871L66.5871 8.04H69.4791L62.2551 26.76H59.5431ZM70.0688 21V3.36H72.9608V21H70.0688ZM75.3553 21V3.36H78.2473V21H75.3553ZM86.1259 21.36C84.8299 21.36 83.6979 21.068 82.7299 20.484C81.7619 19.9 81.0099 19.096 80.4739 18.072C79.9459 17.04 79.6819 15.856 79.6819 14.52C79.6819 13.16 79.9539 11.968 80.4979 10.944C81.0419 9.92 81.7979 9.12 82.7659 8.544C83.7339 7.968 84.8539 7.68 86.1259 7.68C87.4299 7.68 88.5659 7.972 89.5339 8.556C90.5019 9.14 91.2539 9.948 91.7899 10.98C92.3259 12.004 92.5939 13.184 92.5939 14.52C92.5939 15.864 92.3219 17.052 91.7779 18.084C91.2419 19.108 90.4899 19.912 89.5219 20.496C88.5539 21.072 87.4219 21.36 86.1259 21.36ZM86.1259 18.648C87.2779 18.648 88.1339 18.264 88.6939 17.496C89.2539 16.728 89.5339 15.736 89.5339 14.52C89.5339 13.264 89.2499 12.264 88.6819 11.52C88.1139 10.768 87.2619 10.392 86.1259 10.392C85.3499 10.392 84.7099 10.568 84.2059 10.92C83.7099 11.264 83.3419 11.748 83.1019 12.372C82.8619 12.988 82.7419 13.704 82.7419 14.52C82.7419 15.776 83.0259 16.78 83.5939 17.532C84.1699 18.276 85.0139 18.648 86.1259 18.648Z" fill="#1B92AC"/>
<path d="M0 4H19.2072L0.906041 22.3012L7.33863 8.89239L0 4Z" fill="#7ACCC8"/>
<path d="M11.2913 20.4891L30.1361 23.0259L9.38873 15.5967L2.59375 22.4823L11.2913 20.4891Z" fill="#1B92AC"/>
</svg>
